<svg width="40" height="40" viewBox="0 0 40 40" fill="none" xmlns="http://www.w3.org/2000/svg">
<path opacity="0.32" d="M26.6306 3.02703C14.7748 3.02703 5.15315 12.6126 5.15315 24.4324C5.15315 28.8288 6.52252 33.1171 9.04504 36.7207C3.6036 33.1171 0 26.991 0 20C0 8.97297 8.97297 0 20.0721 0C24.3243 0 28.2522 1.33333 31.4955 3.56757C29.9099 3.20721 28.2883 3.02703 26.6306 3.02703ZM37.2613 9.65766C38.7027 12.0721 39.6036 14.5225 40 17.4775C37.5135 16.3243 34.7387 15.8198 31.8198 15.8198C21.045 15.8198 12.3243 24.5045 12.3243 35.2072C12.3243 36 12.3604 36.7928 12.4685 37.5495C10.8468 34.6306 9.98198 31.3153 10.018 27.964C10.018 17.009 18.955 8.10811 29.982 8.10811C32.4685 8.14415 35.0631 8.82883 37.2613 9.65766ZM37.2613 30.3423C35.7838 29.7297 34.2342 29.4054 32.6487 29.3333C29.6937 29.1892 26.7748 30.018 24.2883 31.6757C21.8378 33.3333 19.964 35.7477 18.991 38.5586C18.955 38.0901 18.955 37.5856 18.991 37.1171C19.3874 28.2523 26.9189 21.4054 35.8198 21.8018C37.2613 21.8739 38.6667 22.1622 39.964 22.5946C39.6396 25.2973 38.7027 27.964 37.2613 30.3423Z" fill="#2B2B51"/>
<path d="M26.6306 36.9728C14.7748 36.9728 5.15315 27.3872 5.15315 15.5674C5.15315 10.9908 6.59459 6.77462 9.04504 3.27912C3.6036 6.88272 0 13.0089 0 19.9998C0 31.0269 8.97297 39.9998 20.0721 39.9998C24.3243 39.9998 28.2522 38.7025 31.4955 36.4323C29.9099 36.7926 28.2883 36.9728 26.6306 36.9728ZM37.1171 30.5584C38.6306 28.108 39.6396 25.3692 40 22.5224C37.4775 23.6755 34.7387 24.2881 31.964 24.2881C21.4054 24.2881 13.4054 15.7476 13.4054 5.2611C13.4054 4.46831 13.4414 3.71155 13.5495 2.9548C11.964 5.83768 11.1351 9.04489 11.1351 12.3602C11.1351 23.135 19.3153 31.8557 30.1622 31.8557C32.6126 31.8557 34.955 31.3872 37.1171 30.5584ZM37.2613 9.6575C35.7838 10.2701 34.2342 10.5944 32.6487 10.6665C29.6937 10.8107 26.7748 9.98182 24.2883 8.32417C21.8378 6.66651 19.964 4.25209 18.991 1.44128C18.955 1.90975 18.955 2.41426 18.991 2.88273C19.3874 11.7476 26.9189 18.5944 35.8198 18.198C37.2252 18.126 38.6306 17.8737 39.964 17.4773C39.6396 14.7386 38.7027 12.0359 37.2613 9.6575Z" fill="#2B2B51"/>
</svg>
